<svg width="16" height="16" viewBox="0 0 16 16" fill="none" xmlns="http://www.w3.org/2000/svg">
<rect width="16" height="16" rx="8" fill="white"/>
<path d="M8.70085 5.0975C8.70632 4.90965 8.55558 4.75439 8.36765 4.75439H7.63218C7.44418 4.75439 7.29332 4.90981 7.29898 5.09775L7.40678 8.68085C7.40745 8.70338 7.41038 8.72531 7.41525 8.74645C7.44958 8.89451 7.58232 9.00418 7.73998 9.00418H8.26258C8.44285 9.00418 8.59045 8.86078 8.59572 8.68058L8.70085 5.0975Z" fill="#FFA629"/>
<path d="M7.45815 11.1595C7.60942 11.3086 7.79055 11.3831 8.00149 11.3831C8.13782 11.3831 8.26355 11.3491 8.37862 11.2809C8.49369 11.2106 8.58635 11.1179 8.65669 11.0029C8.72909 10.8857 8.76642 10.7567 8.76855 10.6161C8.76642 10.4073 8.68862 10.2283 8.53522 10.0792C8.38182 9.93007 8.20389 9.85547 8.00149 9.85547C7.79055 9.85547 7.60942 9.93007 7.45815 10.0792C7.30689 10.2283 7.23229 10.4073 7.23442 10.6161C7.23229 10.8271 7.30689 11.0081 7.45815 11.1595Z" fill="#FFA629"/>
<path fill-rule="evenodd" clip-rule="evenodd" d="M7.99967 14.6668C11.6815 14.6668 14.6663 11.682 14.6663 8.00016C14.6663 4.31826 11.6815 1.3335 7.99967 1.3335C4.31777 1.3335 1.33301 4.31826 1.33301 8.00016C1.33301 11.682 4.31777 14.6668 7.99967 14.6668ZM7.99967 13.3335C10.9452 13.3335 13.333 10.9457 13.333 8.00016C13.333 5.05464 10.9452 2.66683 7.99967 2.66683C5.05415 2.66683 2.66634 5.05464 2.66634 8.00016C2.66634 10.9457 5.05415 13.3335 7.99967 13.3335Z" fill="#FFA629"/>
</svg>
