<svg width="18" height="18" viewBox="0 0 18 18" fill="none" xmlns="http://www.w3.org/2000/svg">
<path fill-rule="evenodd" clip-rule="evenodd" d="M0.666672 8.99984C0.666672 4.40484 4.40501 0.666504 9.00001 0.666504C13.595 0.666504 17.3333 4.40484 17.3333 8.99984C17.3333 13.5948 13.595 17.3332 9.00001 17.3332C4.40501 17.3332 0.666672 13.5948 0.666672 8.99984ZM2.33334 8.99984C2.33334 12.6757 5.32417 15.6665 9.00001 15.6665C12.6758 15.6665 15.6667 12.6757 15.6667 8.99984C15.6667 5.324 12.6758 2.33317 9.00001 2.33317C5.32417 2.33317 2.33334 5.324 2.33334 8.99984ZM9.83334 13.1665V8.1665H8.16667V13.1665H9.83334ZM9.83334 6.49984V4.83317H8.16667V6.49984H9.83334Z" fill="white" fill-opacity="0.93"/>
</svg>
