<svg width="18" height="16" viewBox="0 0 18 16" fill="none" xmlns="http://www.w3.org/2000/svg">
<path d="M8.99999 2.19189C8.092 1.35697 6.9035 0.893593 5.66999 0.893555C5.01711 0.894234 4.37081 1.02402 3.76828 1.27545C3.16574 1.52687 2.61888 1.89497 2.15916 2.35855C0.198327 4.32772 0.199161 7.40772 2.16083 9.36856L8.27083 15.4786C8.41249 15.7277 8.68583 15.8886 8.99999 15.8886C9.12899 15.8873 9.2559 15.8558 9.37052 15.7966C9.48515 15.7374 9.58429 15.6522 9.65999 15.5477L15.8392 9.36856C17.8008 7.40689 17.8008 4.32772 15.8375 2.35522C15.378 1.89249 14.8316 1.52514 14.2296 1.27429C13.6277 1.02345 12.9821 0.894054 12.33 0.893555C11.0965 0.893756 9.90808 1.35712 8.99999 2.19189ZM14.6592 3.53355C15.9617 4.84272 15.9625 6.88772 14.6608 8.19022L8.99999 13.8511L3.33916 8.19022C2.03749 6.88772 2.03833 4.84272 3.33749 3.53689C3.97083 2.90689 4.79916 2.56022 5.66999 2.56022C6.54083 2.56022 7.36583 2.90689 7.99416 3.53522L8.41083 3.95189C8.48815 4.02934 8.57999 4.09079 8.68108 4.13272C8.78218 4.17464 8.89055 4.19622 8.99999 4.19622C9.10944 4.19622 9.21781 4.17464 9.3189 4.13272C9.42 4.09079 9.51184 4.02934 9.58916 3.95189L10.0058 3.53522C11.2658 2.27772 13.4008 2.28105 14.6592 3.53355Z" fill="black" fill-opacity="0.93"/>
</svg>
