<svg width="18" height="16" viewBox="0 0 18 16" fill="none" xmlns="http://www.w3.org/2000/svg">
<path d="M8.9999 2.19189C8.0919 1.35697 6.90341 0.893593 5.6699 0.893555C5.01702 0.894234 4.37071 1.02402 3.76818 1.27545C3.16565 1.52687 2.61879 1.89497 2.15907 2.35855C0.198236 4.32772 0.199069 7.40772 2.16074 9.36856L8.27074 15.4786C8.4124 15.7277 8.68574 15.8886 8.9999 15.8886C9.1289 15.8873 9.25581 15.8558 9.37043 15.7966C9.48505 15.7374 9.5842 15.6522 9.6599 15.5477L15.8391 9.36856C17.8007 7.40689 17.8007 4.32772 15.8374 2.35522C15.3779 1.89249 14.8315 1.52514 14.2295 1.27429C13.6276 1.02345 12.982 0.894054 12.3299 0.893555C11.0964 0.893756 9.90799 1.35712 8.9999 2.19189ZM14.6591 3.53355C15.9616 4.84272 15.9624 6.88772 14.6607 8.19022L8.9999 13.8511L3.33907 8.19022C2.0374 6.88772 2.03824 4.84272 3.3374 3.53689C3.97074 2.90689 4.79907 2.56022 5.6699 2.56022C6.54074 2.56022 7.36574 2.90689 7.99407 3.53522L8.41074 3.95189C8.48806 4.02934 8.5799 4.09079 8.68099 4.13272C8.78209 4.17464 8.89046 4.19622 8.9999 4.19622C9.10935 4.19622 9.21772 4.17464 9.31881 4.13272C9.41991 4.09079 9.51175 4.02934 9.58907 3.95189L10.0057 3.53522C11.2657 2.27772 13.4007 2.28105 14.6591 3.53355Z" fill="white" fill-opacity="0.93"/>
</svg>
