<svg width="24" height="24" viewBox="0 0 24 24" fill="none" xmlns="http://www.w3.org/2000/svg">
<path d="M13.0516 7.6465C13.0598 7.36473 12.8337 7.13184 12.5518 7.13184H11.4486C11.1666 7.13184 10.9403 7.36497 10.9488 7.64687L11.1105 13.0215C11.1115 13.0553 11.1159 13.0882 11.1232 13.1199C11.1747 13.342 11.3738 13.5065 11.6103 13.5065H12.3942C12.6646 13.5065 12.886 13.2914 12.8939 13.0211L13.0516 7.6465Z" fill="#FFA629"/>
<path d="M11.1874 16.7392C11.4143 16.9629 11.686 17.0747 12.0024 17.0747C12.2069 17.0747 12.3955 17.0236 12.5681 16.9213C12.7407 16.8159 12.8797 16.6768 12.9852 16.5043C13.0938 16.3285 13.1498 16.1351 13.153 15.9242C13.1498 15.611 13.0331 15.3425 12.803 15.1188C12.5729 14.8951 12.306 14.7832 12.0024 14.7832C11.686 14.7832 11.4143 14.8951 11.1874 15.1188C10.9605 15.3425 10.8486 15.611 10.8518 15.9242C10.8486 16.2406 10.9605 16.5122 11.1874 16.7392Z" fill="#FFA629"/>
<path fill-rule="evenodd" clip-rule="evenodd" d="M12 22C17.5228 22 22 17.5228 22 12C22 6.47715 17.5228 2 12 2C6.47715 2 2 6.47715 2 12C2 17.5228 6.47715 22 12 22ZM12 20C16.4183 20 20 16.4183 20 12C20 7.58172 16.4183 4 12 4C7.58172 4 4 7.58172 4 12C4 16.4183 7.58172 20 12 20Z" fill="#FFA629"/>
</svg>
