<svg width="18" height="18" viewBox="0 0 18 18" fill="none" xmlns="http://www.w3.org/2000/svg">
<path fill-rule="evenodd" clip-rule="evenodd" d="M0.666992 9.00033C0.666992 4.40533 4.40533 0.666992 9.00033 0.666992C13.5953 0.666992 17.3337 4.40533 17.3337 9.00033C17.3337 13.5953 13.5953 17.3337 9.00033 17.3337C4.40533 17.3337 0.666992 13.5953 0.666992 9.00033ZM2.33366 9.00033C2.33366 12.6762 5.32449 15.667 9.00033 15.667C12.6762 15.667 15.667 12.6762 15.667 9.00033C15.667 5.32449 12.6762 2.33366 9.00033 2.33366C5.32449 2.33366 2.33366 5.32449 2.33366 9.00033ZM9.83366 13.167V8.16699H8.16699V13.167H9.83366ZM9.83366 6.50033V4.83366H8.16699V6.50033H9.83366Z" fill="black" fill-opacity="0.93"/>
</svg>
