<svg width="14" height="13" viewBox="0 0 14 13" fill="none" xmlns="http://www.w3.org/2000/svg">
<path d="M6.99998 1.06308C6.27359 0.39515 5.32279 0.0244451 4.33598 0.0244141C3.81368 0.0249579 3.29663 0.128787 2.81461 0.329926C2.33258 0.531066 1.8951 0.825544 1.52732 1.19641C-0.0413488 2.77175 -0.0406821 5.23575 1.52865 6.80441L6.41665 11.6924C6.52998 11.8917 6.74865 12.0204 6.99998 12.0204C7.10318 12.0194 7.20471 11.9942 7.29641 11.9469C7.38811 11.8995 7.46742 11.8313 7.52798 11.7477L12.4713 6.80441C14.0407 5.23508 14.0407 2.77175 12.47 1.19375C12.1024 0.823559 11.6653 0.529679 11.1837 0.329003C10.7021 0.128327 10.1857 0.0248138 9.66399 0.0244141C8.6772 0.0245754 7.72645 0.395262 6.99998 1.06308ZM11.5273 2.13641C12.5693 3.18375 12.57 4.81975 11.5287 5.86175L6.99998 10.3904L2.47132 5.86175C1.42998 4.81975 1.43065 3.18375 2.46998 2.13908C2.97665 1.63508 3.63932 1.35775 4.33598 1.35775C5.03265 1.35775 5.69265 1.63508 6.19532 2.13775L6.52865 2.47108C6.59051 2.53304 6.66398 2.5822 6.74486 2.61574C6.82573 2.64928 6.91243 2.66655 6.99998 2.66655C7.08754 2.66655 7.17424 2.64928 7.25511 2.61574C7.33599 2.5822 7.40946 2.53304 7.47132 2.47108L7.80465 2.13775C8.81265 1.13175 10.5207 1.13441 11.5273 2.13641Z" fill="black" fill-opacity="0.93"/>
</svg>
