<svg width="24" height="24" viewBox="0 0 24 24" fill="none" xmlns="http://www.w3.org/2000/svg">
<rect width="24" height="24" rx="12" fill="white"/>
<path d="M13.0523 7.64647C13.0605 7.3647 12.8344 7.13181 12.5525 7.13181H11.4493C11.1673 7.13181 10.941 7.36494 10.9495 7.64684L11.1112 13.0215C11.1122 13.0553 11.1166 13.0882 11.1239 13.1199C11.1754 13.342 11.3745 13.5065 11.611 13.5065H12.3949C12.6653 13.5065 12.8867 13.2914 12.8946 13.0211L13.0523 7.64647Z" fill="#FFA629"/>
<path d="M11.1872 16.7391C11.4141 16.9628 11.6858 17.0746 12.0022 17.0746C12.2067 17.0746 12.3953 17.0235 12.5679 16.9212C12.7405 16.8158 12.8795 16.6767 12.985 16.5042C13.0936 16.3284 13.1496 16.135 13.1528 15.9241C13.1496 15.6109 13.0329 15.3424 12.8028 15.1187C12.5727 14.895 12.3058 14.7831 12.0022 14.7831C11.6858 14.7831 11.4141 14.895 11.1872 15.1187C10.9603 15.3424 10.8484 15.6109 10.8516 15.9241C10.8484 16.2405 10.9603 16.5121 11.1872 16.7391Z" fill="#FFA629"/>
<path fill-rule="evenodd" clip-rule="evenodd" d="M12 22C17.5228 22 22 17.5228 22 12C22 6.47715 17.5228 2 12 2C6.47715 2 2 6.47715 2 12C2 17.5228 6.47715 22 12 22ZM12 20C16.4183 20 20 16.4183 20 12C20 7.58172 16.4183 4 12 4C7.58172 4 4 7.58172 4 12C4 16.4183 7.58172 20 12 20Z" fill="#FFA629"/>
</svg>
