<svg width="32" height="32" viewBox="0 0 32 32" fill="none" xmlns="http://www.w3.org/2000/svg">
<g clip-path="url(#clip0_305_4551)">
<path d="M16.8937 2.95602L28.227 9.28935C28.5597 9.45544 28.8395 9.71099 29.035 10.0273C29.2305 10.3436 29.3339 10.7082 29.3337 11.08V13C29.3337 13.92 28.587 14.6667 27.667 14.6667H26.667V25.3333H28.0003C28.3539 25.3333 28.6931 25.4738 28.9431 25.7239C29.1932 25.9739 29.3337 26.3131 29.3337 26.6667C29.3337 27.0203 29.1932 27.3594 28.9431 27.6095C28.6931 27.8595 28.3539 28 28.0003 28H4.00033C3.6467 28 3.30756 27.8595 3.05752 27.6095C2.80747 27.3594 2.66699 27.0203 2.66699 26.6667C2.66699 26.3131 2.80747 25.9739 3.05752 25.7239C3.30756 25.4738 3.6467 25.3333 4.00033 25.3333H5.33366V14.6667H4.33366C3.41366 14.6667 2.66699 13.92 2.66699 13V11.08C2.66699 10.384 3.02699 9.74402 3.60833 9.38135L15.1057 2.95602C15.3834 2.81708 15.6897 2.74475 16.0003 2.74475C16.3109 2.74475 16.6159 2.81708 16.8937 2.95602ZM24.0003 14.6667H8.00033V25.3333H12.0003V17.3334H14.667V25.3333H17.3337V17.3334H20.0003V25.3333H24.0003V14.6667ZM16.0003 5.49068L5.33366 11.4907V12H26.667V11.4907L16.0003 5.49068ZM16.0003 8.00002C16.3539 8.00002 16.6931 8.14049 16.9431 8.39054C17.1932 8.64059 17.3337 8.97973 17.3337 9.33335C17.3337 9.68697 17.1932 10.0261 16.9431 10.2762C16.6931 10.5262 16.3539 10.6667 16.0003 10.6667C15.6467 10.6667 15.3076 10.5262 15.0575 10.2762C14.8075 10.0261 14.667 9.68697 14.667 9.33335C14.667 8.97973 14.8075 8.64059 15.0575 8.39054C15.3076 8.14049 15.6467 8.00002 16.0003 8.00002Z" fill="black" fill-opacity="0.35"/>
</g>
<defs>
<clipPath id="clip0_305_4551">
<rect width="32" height="32" fill="white"/>
</clipPath>
</defs>
</svg>
