<svg width="16" height="16" viewBox="0 0 16 16" fill="none" xmlns="http://www.w3.org/2000/svg">
<path d="M14.5477 4.954C14.4864 4.86538 14.4045 4.79295 14.309 4.74291C14.2136 4.69287 14.1074 4.66671 13.9997 4.66667H4.88834L4.11901 2.82C4.01813 2.57682 3.84732 2.36906 3.62822 2.22308C3.40913 2.07709 3.15162 1.99945 2.88834 2H1.33301V3.33334H2.88834L6.05101 10.9233C6.10167 11.0448 6.18713 11.1485 6.29662 11.2215C6.40612 11.2944 6.53476 11.3333 6.66634 11.3333H11.9997C12.2777 11.3333 12.5263 11.1607 12.6243 10.9013L14.6243 5.568C14.6621 5.46708 14.6749 5.35851 14.6616 5.25157C14.6482 5.14463 14.6091 5.04253 14.5477 4.954ZM11.5377 10H7.11101L5.44434 6H13.0377L11.5377 10Z" fill="white"/>
<path d="M7 14C7.55228 14 8 13.5523 8 13C8 12.4477 7.55228 12 7 12C6.44772 12 6 12.4477 6 13C6 13.5523 6.44772 14 7 14Z" fill="white"/>
<path d="M11.667 14C12.2193 14 12.667 13.5523 12.667 13C12.667 12.4477 12.2193 12 11.667 12C11.1147 12 10.667 12.4477 10.667 13C10.667 13.5523 11.1147 14 11.667 14Z" fill="white"/>
</svg>
