<svg width="20" height="20" viewBox="0 0 20 20" fill="none" xmlns="http://www.w3.org/2000/svg">
<path d="M9.99935 6.25C9.5391 6.25 9.16602 6.6231 9.16602 7.08333V10C9.16602 10.2977 9.32485 10.5728 9.58268 10.7217L12.4694 12.3883C12.5193 12.4171 12.5708 12.4402 12.6233 12.4577C12.9911 12.5803 13.4064 12.4321 13.6078 12.0833C13.8379 11.6848 13.7013 11.1751 13.3028 10.945L10.8327 9.51892V7.08333C10.8327 6.6231 10.4596 6.25 9.99935 6.25Z" fill="black" fill-opacity="0.65"/>
<path fill-rule="evenodd" clip-rule="evenodd" d="M9.99935 18.3333C14.6017 18.3333 18.3327 14.6023 18.3327 10C18.3327 5.39763 14.6017 1.66667 9.99935 1.66667C5.39697 1.66667 1.66602 5.39763 1.66602 10C1.66602 14.6023 5.39697 18.3333 9.99935 18.3333ZM9.99935 16.6667C13.6813 16.6667 16.666 13.6819 16.666 10C16.666 6.3181 13.6813 3.33334 9.99935 3.33334C6.31745 3.33334 3.33268 6.3181 3.33268 10C3.33268 13.6819 6.31745 16.6667 9.99935 16.6667Z" fill="black" fill-opacity="0.65"/>
</svg>
