<svg width="17" height="16" viewBox="0 0 17 16" fill="none" xmlns="http://www.w3.org/2000/svg">
<path d="M8.49967 1.33337C12.1797 1.33337 15.1663 4.32004 15.1663 8.00004C15.1663 11.68 12.1797 14.6667 8.49967 14.6667C4.81967 14.6667 1.83301 11.68 1.83301 8.00004C1.83301 4.32004 4.81967 1.33337 8.49967 1.33337ZM8.49967 2.66671C5.55301 2.66671 3.16634 5.05337 3.16634 8.00004C3.16634 10.9467 5.55301 13.3334 8.49967 13.3334C11.4463 13.3334 13.833 10.9467 13.833 8.00004C13.833 5.05337 11.4463 2.66671 8.49967 2.66671ZM8.49967 4.66671C9.71301 4.66671 10.775 5.31537 11.3583 6.28537L10.2157 6.97137C10.0358 6.67154 9.78056 6.42408 9.47527 6.25367C9.16998 6.08327 8.82535 5.99587 8.47575 6.00019C8.12615 6.00452 7.78379 6.10042 7.48281 6.27832C7.18183 6.45623 6.93274 6.70993 6.76039 7.01412C6.58804 7.31832 6.49844 7.66238 6.50053 8.012C6.50262 8.36162 6.59633 8.70459 6.77231 9.0067C6.94829 9.30881 7.20039 9.55952 7.50347 9.73381C7.80656 9.9081 8.15005 9.9999 8.49967 10C8.8451 10.0003 9.18468 9.91096 9.48531 9.74085C9.78594 9.57073 10.0373 9.3256 10.215 9.02937L11.3583 9.71471C10.9837 10.3405 10.4141 10.826 9.73696 11.0969C9.05981 11.3679 8.31249 11.4092 7.60961 11.2145C6.90673 11.0199 6.2871 10.6 5.84577 10.0194C5.40443 9.43876 5.16575 8.72937 5.16634 8.00004C5.16634 6.16004 6.65967 4.66671 8.49967 4.66671Z" fill="white" fill-opacity="0.65"/>
</svg>
