<svg width="16" height="16" viewBox="0 0 16 16" fill="none" xmlns="http://www.w3.org/2000/svg">
<path fill-rule="evenodd" clip-rule="evenodd" d="M10.989 2.13843C12.0515 2.13843 13.0707 2.56005 13.8227 3.31075C14.5747 4.06144 14.9981 5.07986 15 6.14243C15 8.2984 14.209 9.3274 10.674 12.1204L8.8584 13.5297C8.35327 13.9217 7.64673 13.9217 7.1416 13.5297L5.326 12.1204C1.791 9.3274 1 8.2984 1 6.14243C1.00185 5.07986 1.42526 4.06144 2.17727 3.31075C2.92927 2.56005 3.94843 2.13843 5.011 2.13843C6.09491 2.14357 7.13427 2.57036 7.909 3.32843L8 3.41428L8.091 3.32843C8.86573 2.57036 9.90507 2.14357 10.989 2.13843ZM7.4816 4.80967C7.49427 4.82161 7.50693 4.83355 7.51953 4.84545C7.78927 5.09998 8.21067 5.09998 8.4804 4.84545C8.49307 4.83351 8.50573 4.82154 8.5184 4.80955C9.13453 4.22789 9.78607 3.61271 10.6234 3.49798C10.745 3.48133 10.8681 3.47249 10.9921 3.47176C11.7003 3.47259 12.3795 3.75397 12.8807 4.25438C13.3824 4.75516 13.665 5.4344 13.6667 6.14318C13.6666 6.99954 13.5257 7.50393 13.0858 8.1062C12.5692 8.81367 11.631 9.6648 9.85187 11.0707L8.04087 12.4763C8.0168 12.495 7.9832 12.495 7.95913 12.4763L6.14809 11.0707C4.36896 9.6648 3.43079 8.81367 2.91415 8.1062C2.47439 7.504 2.33347 6.99973 2.33333 6.14366C2.33486 5.43471 2.61749 4.75527 3.11925 4.25438C3.62053 3.75397 4.29963 3.47259 5.00785 3.47176C5.13169 3.47249 5.25468 3.48131 5.37609 3.49792C6.21365 3.61253 6.8654 4.22787 7.4816 4.80967Z" fill="black" fill-opacity="0.65"/>
</svg>
