<svg width="20" height="19" viewBox="0 0 20 19" fill="none" xmlns="http://www.w3.org/2000/svg">
<path d="M10.0005 1.59499C8.91087 0.593091 7.48468 0.0370339 6.00447 0.0369873C5.22101 0.037803 4.44544 0.193547 3.72241 0.495256C2.99937 0.796965 2.34313 1.23868 1.79147 1.79499C-0.561531 4.15799 -0.560531 7.85399 1.79347 10.207L9.12547 17.539C9.29547 17.838 9.62347 18.031 10.0005 18.031C10.1553 18.0295 10.3076 17.9917 10.4451 17.9207C10.5827 17.8496 10.7016 17.7473 10.7925 17.622L18.2075 10.207C20.5615 7.85299 20.5615 4.15799 18.2055 1.79099C17.6541 1.2357 16.9984 0.794884 16.276 0.49387C15.5537 0.192857 14.779 0.0375869 13.9965 0.0369873C12.5163 0.0372293 11.0902 0.59326 10.0005 1.59499ZM16.7915 3.20499C18.3545 4.77599 18.3555 7.22999 16.7935 8.79299L10.0005 15.586L3.20747 8.79299C1.64547 7.22999 1.64647 4.77599 3.20547 3.20899C3.96547 2.45299 4.95947 2.03699 6.00447 2.03699C7.04947 2.03699 8.03947 2.45299 8.79347 3.20699L9.29347 3.70699C9.38626 3.79993 9.49646 3.87367 9.61778 3.92398C9.73909 3.97429 9.86914 4.00019 10.0005 4.00019C10.1318 4.00019 10.2618 3.97429 10.3832 3.92398C10.5045 3.87367 10.6147 3.79993 10.7075 3.70699L11.2075 3.20699C12.7195 1.69799 15.2815 1.70199 16.7915 3.20499Z" fill="black"/>
</svg>
