<svg width="1384" height="194" viewBox="0 0 1384 194" fill="none" xmlns="http://www.w3.org/2000/svg">
<path d="M245.796 0H0V51.4003H78.0997V188.644H167.696V51.4003H245.796V0Z" fill="#982626"/>
<path d="M424.748 0V66.2375H343.477V0H253.88V188.644H343.477V119.228H424.748V188.644H514.344V0H424.748Z" fill="#982626"/>
<path d="M763.829 51.4003V0H532.305V188.644H763.829V137.244H621.902V119.492H753.125V69.9468H621.902V51.4003H763.829Z" fill="#982626"/>
<path d="M1021.92 0V66.2375H940.653V0H851.057V188.644H940.653V119.228H1021.92V188.644H1111.52V0H1021.92Z" fill="#982626"/>
<path d="M1254.76 193.149C1338.01 193.149 1384 166.124 1384 119.228V0H1294.4V117.638C1294.4 132.475 1284.49 142.278 1254.76 142.278C1225.03 142.278 1215.11 132.475 1215.11 117.638V0H1125.52V119.228C1125.52 166.124 1171.51 193.149 1254.76 193.149Z" fill="#982626"/>
</svg>
