<svg width="20" height="20" viewBox="0 0 20 20" fill="none" xmlns="http://www.w3.org/2000/svg">
<path fill-rule="evenodd" clip-rule="evenodd" d="M0 2.50008C0 2.03985 0.373096 1.66675 0.833333 1.66675H3.06419C3.40494 1.66675 3.71137 1.87421 3.83792 2.19059L4.29506 3.33341H17.9358C18.5253 3.33341 18.9285 3.92886 18.7095 4.47624L16.2524 10.6191C15.9993 11.2518 15.3864 11.6667 14.7049 11.6667H6.84255L5.72713 13.3334H15.8333C16.2936 13.3334 16.6667 13.7065 16.6667 14.1667C16.6667 14.627 16.2936 15.0001 15.8333 15.0001H4.16667C3.85907 15.0001 3.57648 14.8307 3.43158 14.5593C3.28668 14.288 3.30304 13.9589 3.47413 13.7032L5.46063 10.735L2.5 3.33341H0.833333C0.373096 3.33341 0 2.96031 0 2.50008ZM6.96173 10.0001H14.7049L16.7049 5.00008H4.96173L6.96173 10.0001Z" fill="white"/>
<path d="M6.25065 17.7083C6.25065 18.5138 5.59773 19.1667 4.79232 19.1667C3.9869 19.1667 3.33398 18.5138 3.33398 17.7083C3.33398 16.9029 3.9869 16.25 4.79232 16.25C5.59773 16.25 6.25065 16.9029 6.25065 17.7083Z" fill="white"/>
<path d="M15.2083 19.1667C16.0138 19.1667 16.6667 18.5138 16.6667 17.7083C16.6667 16.9029 16.0138 16.25 15.2083 16.25C14.4029 16.25 13.75 16.9029 13.75 17.7083C13.75 18.5138 14.4029 19.1667 15.2083 19.1667Z" fill="white"/>
</svg>
