<svg width="308" height="24" viewBox="0 0 308 24" fill="none" xmlns="http://www.w3.org/2000/svg">
<path d="M6.29263 4.15263H0.75V0H6.29263V4.15263ZM0.75 6.20526H6.29263V23.4158H0.75V6.20526Z" fill="white"/>
<path d="M23.189 5.79474C25.3498 5.79474 27.1143 6.26316 28.4823 7.2C29.8632 8.12632 30.5536 9.66842 30.5536 11.8263V23.4158H24.9535V12.9474C24.9535 12.0421 24.8064 11.3474 24.5124 10.8632C23.9754 9.97895 22.9525 9.53684 21.4438 9.53684C19.5898 9.53684 18.3176 10.1842 17.6272 11.4789C17.2692 12.1632 17.0902 13.0368 17.0902 14.1V23.4158H11.6435V6.23684H16.9176V8.74737C17.6208 7.86316 18.2857 7.22632 18.9122 6.83684C20.0373 6.14211 21.4629 5.79474 23.189 5.79474Z" fill="white"/>
<path d="M44.4006 9.56842V6.36316H47.3158V1.56316H52.7242V6.36316H56.1188V9.56842H52.7242V18.6632C52.7242 19.3684 52.8328 19.8105 53.0502 19.9895C53.2676 20.1579 53.9324 20.2421 55.0448 20.2421C55.211 20.2421 55.3836 20.2421 55.5626 20.2421C55.7544 20.2316 55.9398 20.2211 56.1188 20.2105V23.5737L53.5297 23.6526C50.9469 23.7263 49.1825 23.3579 48.2364 22.5474C47.6226 22.0316 47.3158 21.2368 47.3158 20.1632V9.56842H44.4006Z" fill="white"/>
<path d="M71.1548 5.76316C72.4462 5.76316 73.6161 5.94737 74.6645 6.31579C75.7258 6.68421 76.5952 7.24737 77.2728 8.00526C77.8482 8.64737 78.1998 9.31053 78.3277 9.99474C78.4555 10.6684 78.5194 11.7737 78.5194 13.3105V23.4158H72.9385V12.9474C72.9385 12.0211 72.7467 11.2737 72.3631 10.7053C71.8645 9.90526 70.9183 9.50526 69.5247 9.50526C68.0799 9.50526 66.9803 9.90526 66.2259 10.7053C65.4844 11.4947 65.1136 12.6263 65.1136 14.1V23.4158H59.6668V0.221053H65.1136V8.44737C65.9063 7.44737 66.8205 6.75263 67.8561 6.36316C68.9046 5.96316 70.0041 5.76316 71.1548 5.76316Z" fill="white"/>
<path d="M91.887 9.4579C90.6212 9.4579 89.6367 9.78421 88.9335 10.4368C88.243 11.0895 87.8083 11.9737 87.6293 13.0895H96.1255C96.0359 11.9 95.5948 11 94.8021 10.3895C94.0222 9.76842 93.0505 9.4579 91.887 9.4579ZM91.887 5.74737C93.6258 5.74737 95.1921 6.01579 96.5857 6.55263C97.9794 7.08947 99.1301 7.93684 100.038 9.09474C100.856 10.1158 101.387 11.3 101.63 12.6474C101.77 13.4368 101.828 14.5737 101.802 16.0579H87.4951C87.5718 17.7842 88.2302 18.9947 89.4705 19.6895C90.2248 20.1211 91.1326 20.3368 92.1938 20.3368C93.319 20.3368 94.2332 20.0737 94.9364 19.5474C95.3199 19.2632 95.6588 18.8684 95.9528 18.3632H101.534C101.393 19.3842 100.748 20.4211 99.5968 21.4737C97.8068 23.1474 95.3008 23.9842 92.0788 23.9842C89.4193 23.9842 87.0731 23.2789 85.0402 21.8684C83.0073 20.4579 81.9908 18.1632 81.9908 14.9842C81.9908 12.0053 82.905 9.72105 84.7333 8.13158C86.5745 6.54211 88.959 5.74737 91.887 5.74737Z" fill="white"/>
<path d="M139.795 5.82632C140.716 5.82632 141.624 5.97368 142.519 6.26842C143.414 6.56316 144.226 7.07895 144.954 7.81579C145.542 8.41579 145.939 9.15263 146.143 10.0263C146.271 10.6053 146.335 11.4526 146.335 12.5684L146.297 23.4158H140.697V12.4579C140.697 11.8053 140.569 11.2684 140.313 10.8474C139.827 10.0474 138.932 9.64737 137.628 9.64737C136.119 9.64737 135.077 10.1632 134.502 11.1947C134.208 11.7421 134.061 12.4 134.061 13.1684V23.4158H128.557V13.1684C128.557 12.1474 128.429 11.4053 128.173 10.9421C127.713 10.1105 126.811 9.69474 125.469 9.69474C123.909 9.69474 122.861 10.1105 122.324 10.9421C122.029 11.4158 121.882 12.1211 121.882 13.0579V23.4158H116.34V6.23684H121.652V8.74737C122.33 7.85263 122.969 7.21579 123.57 6.83684C124.631 6.16316 126.006 5.82632 127.694 5.82632C129.292 5.82632 130.583 6.11579 131.568 6.69474C132.36 7.23158 132.961 7.92105 133.37 8.76316C134.086 7.75263 134.975 7.01053 136.036 6.53684C137.161 6.06316 138.414 5.82632 139.795 5.82632Z" fill="white"/>
<path d="M159.626 9.4579C158.36 9.4579 157.376 9.78421 156.672 10.4368C155.982 11.0895 155.547 11.9737 155.368 13.0895H163.864C163.775 11.9 163.334 11 162.541 10.3895C161.761 9.76842 160.79 9.4579 159.626 9.4579ZM159.626 5.74737C161.365 5.74737 162.931 6.01579 164.325 6.55263C165.718 7.08947 166.869 7.93684 167.777 9.09474C168.595 10.1158 169.126 11.3 169.369 12.6474C169.509 13.4368 169.567 14.5737 169.541 16.0579H155.234C155.311 17.7842 155.969 18.9947 157.209 19.6895C157.964 20.1211 158.872 20.3368 159.933 20.3368C161.058 20.3368 161.972 20.0737 162.675 19.5474C163.059 19.2632 163.398 18.8684 163.692 18.3632H169.273C169.132 19.3842 168.487 20.4211 167.336 21.4737C165.546 23.1474 163.04 23.9842 159.818 23.9842C157.158 23.9842 154.812 23.2789 152.779 21.8684C150.746 20.4579 149.73 18.1632 149.73 14.9842C149.73 12.0053 150.644 9.72105 152.472 8.13158C154.313 6.54211 156.698 5.74737 159.626 5.74737Z" fill="white"/>
<path d="M171.095 9.56842V6.36316H174.01V1.56316H179.418V6.36316H182.813V9.56842H179.418V18.6632C179.418 19.3684 179.527 19.8105 179.744 19.9895C179.962 20.1579 180.627 20.2421 181.739 20.2421C181.905 20.2421 182.078 20.2421 182.257 20.2421C182.449 20.2316 182.634 20.2211 182.813 20.2105V23.5737L180.224 23.6526C177.641 23.7263 175.877 23.3579 174.931 22.5474C174.317 22.0316 174.01 21.2368 174.01 20.1632V9.56842H171.095Z" fill="white"/>
<path d="M197.849 15.0474C197.504 15.2263 197.152 15.3737 196.794 15.4895C196.449 15.5947 195.97 15.6947 195.356 15.7895L194.128 15.9789C192.978 16.1474 192.153 16.3526 191.654 16.5947C190.81 17.0053 190.389 17.6421 190.389 18.5053C190.389 19.2737 190.644 19.8316 191.156 20.1789C191.68 20.5158 192.313 20.6842 193.054 20.6842C194.231 20.6842 195.311 20.4 196.296 19.8316C197.293 19.2632 197.811 18.2263 197.849 16.7211V15.0474ZM194.531 12.9474C195.541 12.8421 196.264 12.7105 196.698 12.5526C197.478 12.2789 197.868 11.8526 197.868 11.2737C197.868 10.5684 197.568 10.0842 196.967 9.82105C196.379 9.54737 195.509 9.41053 194.359 9.41053C193.067 9.41053 192.153 9.67369 191.616 10.2C191.232 10.5895 190.977 11.1158 190.849 11.7789H185.575C185.69 10.2737 186.201 9.03684 187.109 8.06842C188.554 6.55263 191.034 5.79474 194.55 5.79474C196.839 5.79474 198.872 6.16842 200.649 6.91579C202.426 7.66316 203.315 9.07368 203.315 11.1474V19.0421C203.315 19.5895 203.328 20.2526 203.353 21.0316C203.392 21.6211 203.5 22.0211 203.679 22.2316C203.858 22.4421 204.127 22.6158 204.485 22.7526V23.4158H198.539C198.373 23.0684 198.258 22.7421 198.194 22.4368C198.13 22.1316 198.079 21.7842 198.041 21.3947C197.286 22.0684 196.417 22.6421 195.433 23.1158C194.256 23.6737 192.927 23.9526 191.443 23.9526C189.551 23.9526 187.985 23.5105 186.745 22.6263C185.517 21.7316 184.903 20.4684 184.903 18.8368C184.903 16.7211 185.894 15.1895 187.876 14.2421C188.963 13.7263 190.561 13.3579 192.671 13.1368L194.531 12.9474Z" fill="white"/>
<path d="M221.074 6.20526H226.943L219.406 23.4158H213.633L206.134 6.20526H212.271L216.625 18.9L221.074 6.20526Z" fill="white"/>
<path d="M238.297 9.4579C237.031 9.4579 236.047 9.78421 235.343 10.4368C234.653 11.0895 234.218 11.9737 234.039 13.0895H242.535C242.446 11.9 242.005 11 241.212 10.3895C240.432 9.76842 239.46 9.4579 238.297 9.4579ZM238.297 5.74737C240.036 5.74737 241.602 6.01579 242.996 6.55263C244.389 7.08947 245.54 7.93684 246.448 9.09474C247.266 10.1158 247.797 11.3 248.04 12.6474C248.18 13.4368 248.238 14.5737 248.212 16.0579H233.905C233.982 17.7842 234.64 18.9947 235.88 19.6895C236.635 20.1211 237.542 20.3368 238.604 20.3368C239.729 20.3368 240.643 20.0737 241.346 19.5474C241.73 19.2632 242.069 18.8684 242.363 18.3632H247.944C247.803 19.3842 247.157 20.4211 246.007 21.4737C244.217 23.1474 241.711 23.9842 238.489 23.9842C235.829 23.9842 233.483 23.2789 231.45 21.8684C229.417 20.4579 228.401 18.1632 228.401 14.9842C228.401 12.0053 229.315 9.72105 231.143 8.13158C232.984 6.54211 235.369 5.74737 238.297 5.74737Z" fill="white"/>
<path d="M263.267 5.79474C263.37 5.79474 263.453 5.8 263.517 5.81053C263.593 5.81053 263.753 5.81579 263.996 5.82632V10.4368C263.651 10.4053 263.344 10.3842 263.076 10.3737C262.807 10.3632 262.59 10.3579 262.424 10.3579C260.224 10.3579 258.748 10.9474 257.993 12.1263C257.571 12.7895 257.36 13.8105 257.36 15.1895V23.4158H251.856V6.20526H257.073V9.20526C257.917 8.05789 258.652 7.27368 259.278 6.85263C260.301 6.14737 261.631 5.79474 263.267 5.79474Z" fill="white"/>
<path d="M271.476 17.9211C271.591 18.7211 271.84 19.2895 272.224 19.6263C272.902 20.2263 274.155 20.5263 275.983 20.5263C277.057 20.5263 277.907 20.3947 278.534 20.1316C279.173 19.8684 279.493 19.4737 279.493 18.9474C279.493 18.4421 279.237 18.0579 278.725 17.7947C278.214 17.5316 276.315 17.0789 273.029 16.4368C270.664 15.9526 268.995 15.3474 268.024 14.6211C267.052 13.9053 266.566 12.8737 266.566 11.5263C266.566 9.93684 267.321 8.57368 268.829 7.43684C270.351 6.28947 272.486 5.71579 275.235 5.71579C277.843 5.71579 279.966 6.14737 281.602 7.01053C283.252 7.86316 284.198 9.34211 284.441 11.4474H278.975C278.898 10.8684 278.7 10.4105 278.38 10.0737C277.779 9.46316 276.756 9.1579 275.312 9.1579C274.123 9.1579 273.272 9.31053 272.761 9.61579C272.262 9.92105 272.013 10.2789 272.013 10.6895C272.013 11.2053 272.281 11.5789 272.818 11.8105C273.355 12.0526 275.254 12.4684 278.514 13.0579C280.688 13.4789 282.318 14.1158 283.405 14.9684C284.479 15.8316 285.016 16.9105 285.016 18.2053C285.016 19.9105 284.242 21.3053 282.695 22.3895C281.161 23.4632 278.783 24 275.561 24C272.275 24 269.846 23.4316 268.273 22.2947C266.713 21.1474 265.933 19.6895 265.933 17.9211H271.476Z" fill="white"/>
<path d="M297.329 9.4579C296.063 9.4579 295.078 9.78421 294.375 10.4368C293.685 11.0895 293.25 11.9737 293.071 13.0895H301.567C301.478 11.9 301.037 11 300.244 10.3895C299.464 9.76842 298.492 9.4579 297.329 9.4579ZM297.329 5.74737C299.068 5.74737 300.634 6.01579 302.028 6.55263C303.421 7.08947 304.572 7.93684 305.48 9.09474C306.298 10.1158 306.829 11.3 307.072 12.6474C307.212 13.4368 307.27 14.5737 307.244 16.0579H292.937C293.014 17.7842 293.672 18.9947 294.912 19.6895C295.667 20.1211 296.574 20.3368 297.636 20.3368C298.761 20.3368 299.675 20.0737 300.378 19.5474C300.762 19.2632 301.101 18.8684 301.395 18.3632H306.976C306.835 19.3842 306.189 20.4211 305.039 21.4737C303.249 23.1474 300.743 23.9842 297.521 23.9842C294.861 23.9842 292.515 23.2789 290.482 21.8684C288.449 20.4579 287.433 18.1632 287.433 14.9842C287.433 12.0053 288.347 9.72105 290.175 8.13158C292.016 6.54211 294.401 5.74737 297.329 5.74737Z" fill="white"/>
</svg>
