<svg width="20" height="20" viewBox="0 0 20 20" fill="none" xmlns="http://www.w3.org/2000/svg">
<g clip-path="url(#clip0_350_3839)">
<path fill-rule="evenodd" clip-rule="evenodd" d="M12.5 6.66667C12.5 8.04739 11.3807 9.16667 9.99999 9.16667C8.61932 9.16667 7.5 8.04739 7.5 6.66667C7.5 5.28596 8.61932 4.16667 9.99999 4.16667C11.3807 4.16667 12.5 5.28596 12.5 6.66667ZM10.8333 6.66667C10.8333 7.12691 10.4602 7.50001 9.99999 7.50001C9.53974 7.50001 9.16666 7.12691 9.16666 6.66667C9.16666 6.20644 9.53974 5.83334 9.99999 5.83334C10.4602 5.83334 10.8333 6.20644 10.8333 6.66667Z" fill="black"/>
<path fill-rule="evenodd" clip-rule="evenodd" d="M11.0355 14.8748C12.7113 13.2316 15.8346 9.7545 15.8346 6.66666C15.8346 3.42499 13.223 0.833328 10.0013 0.833328C6.77964 0.833328 4.16797 3.42499 4.16797 6.66666C4.16797 9.7545 7.29133 13.2316 8.96713 14.8748C9.5493 15.4457 10.4533 15.4457 11.0355 14.8748ZM12.684 10.3772C13.6177 8.99991 14.168 7.70263 14.168 6.66666C14.168 4.3492 12.3062 2.49999 10.0013 2.49999C7.69639 2.49999 5.83464 4.3492 5.83464 6.66666C5.83464 7.70263 6.38487 8.99991 7.31863 10.3772C8.1729 11.6372 9.21555 12.7722 10.0013 13.5537C10.7871 12.7722 11.8297 11.6372 12.684 10.3772Z" fill="black"/>
<path d="M4.90534 12.7699C4.51789 12.3824 3.86836 12.468 3.59439 12.9425L1.08339 17.2917C0.602272 18.125 1.20368 19.1667 2.16593 19.1667H17.8333C18.7955 19.1667 19.397 18.125 18.9159 17.2917L16.404 12.9409C16.13 12.4664 15.4805 12.3809 15.093 12.7683C14.8263 13.035 14.772 13.4476 14.9605 13.7743L17.1116 17.5H2.88762L5.03777 13.7758C5.22635 13.4492 5.17204 13.0366 4.90534 12.7699Z" fill="black"/>
</g>
<defs>
<clipPath id="clip0_350_3839">
<rect width="20" height="20" fill="white"/>
</clipPath>
</defs>
</svg>
