<svg width="177" height="24" viewBox="0 0 177 24" fill="none" xmlns="http://www.w3.org/2000/svg">
<path d="M31.3994 0H0V6.38683H9.9769V23.4403H21.4225V6.38683H31.3994V0Z" fill="white" fill-opacity="0.93"/>
<path d="M54.2597 0V8.23045H43.8776V0H32.4321V23.4403H43.8776V14.8148H54.2597V23.4403H65.7053V0H54.2597Z" fill="white" fill-opacity="0.93"/>
<path d="M97.5759 6.38683V0H67.9997V23.4403H97.5759V17.0535H79.4453V14.8477H96.2085V8.69136H79.4453V6.38683H97.5759Z" fill="white" fill-opacity="0.93"/>
<path d="M130.546 0V8.23045H120.164V0H108.719V23.4403H120.164V14.8148H130.546V23.4403H141.992V0H130.546Z" fill="white" fill-opacity="0.93"/>
<path d="M160.29 24C170.925 24 176.8 20.642 176.8 14.8148V0H165.354V14.6173C165.354 16.4609 164.088 17.679 160.29 17.679C156.492 17.679 155.226 16.4609 155.226 14.6173V0H143.78V14.8148C143.78 20.642 149.655 24 160.29 24Z" fill="white" fill-opacity="0.93"/>
</svg>
