<svg width="20" height="20" viewBox="0 0 20 20" fill="none" xmlns="http://www.w3.org/2000/svg">
<path d="M9.16858 16.6667C9.16858 17.1269 9.54174 17.5 10.0019 17.5C10.4622 17.5 10.8352 17.1269 10.8352 16.6667V10.8333H16.6686C17.1288 10.8333 17.5019 10.4602 17.5019 9.99992C17.5019 9.53967 17.1288 9.16658 16.6686 9.16658H10.8352V3.33333C10.8352 2.8731 10.4622 2.5 10.0019 2.5C9.54174 2.5 9.16858 2.8731 9.16858 3.33333V9.16658H3.33529C2.87505 9.16658 2.50195 9.53967 2.50195 9.99992C2.50195 10.4602 2.87505 10.8333 3.33529 10.8333H9.16858V16.6667Z" fill="black" fill-opacity="0.2"/>
</svg>
