<svg width="16" height="12" viewBox="0 0 16 12" fill="none" xmlns="http://www.w3.org/2000/svg">
<path fill-rule="evenodd" clip-rule="evenodd" d="M8.66752 0.942818V3.33334C4.08455 3.33334 1.92175 6.40613 0.792673 9.66986C0.557883 10.3485 1.5649 10.8665 2.14301 10.4404C3.54339 9.40833 5.21305 8.86506 7.33419 8.71226C7.75999 8.68159 8.20392 8.66666 8.66752 8.66666V11.0572C8.66752 11.6511 9.38565 11.9486 9.80565 11.5286L14.8628 6.47139C15.1232 6.21106 15.1232 5.78892 14.8628 5.52859L9.80565 0.471411C9.38565 0.0514312 8.66752 0.348878 8.66752 0.942818ZM8.66752 4.66666C9.40392 4.66666 10.0009 4.06972 10.0009 3.33334V2.55229L13.4486 5.99999L10.0009 9.44773V8.66666C10.0009 7.93032 9.40392 7.33332 8.66752 7.33332C6.36167 7.33332 4.40098 7.68219 2.70513 8.53586C3.14471 7.65439 3.68295 6.87272 4.34675 6.25046C5.35028 5.30979 6.70919 4.66666 8.66752 4.66666Z" fill="black" fill-opacity="0.65"/>
</svg>
