<svg width="24" height="24" viewBox="0 0 24 24" fill="none" xmlns="http://www.w3.org/2000/svg">
<path d="M3.725 6.64997C3.55833 6.7333 3.39567 6.72497 3.237 6.62497C3.079 6.52497 3 6.3833 3 6.19997V3.79997C3 3.61664 3.079 3.47497 3.237 3.37497C3.39567 3.27497 3.55833 3.26664 3.725 3.34997L6.1 4.54997C6.18333 4.59997 6.25 4.66664 6.3 4.74997C6.35 4.8333 6.375 4.91664 6.375 4.99997C6.375 5.0833 6.35 5.16664 6.3 5.24997C6.25 5.3333 6.18333 5.39997 6.1 5.44997L3.725 6.64997ZM18.725 6.64997C18.5583 6.7333 18.396 6.72497 18.238 6.62497C18.0793 6.52497 18 6.3833 18 6.19997V3.79997C18 3.61664 18.0793 3.47497 18.238 3.37497C18.396 3.27497 18.5583 3.26664 18.725 3.34997L21.1 4.54997C21.1833 4.59997 21.25 4.66664 21.3 4.74997C21.35 4.8333 21.375 4.91664 21.375 4.99997C21.375 5.0833 21.35 5.16664 21.3 5.24997C21.25 5.3333 21.1833 5.39997 21.1 5.44997L18.725 6.64997ZM11.725 5.64997C11.5583 5.7333 11.396 5.72497 11.238 5.62497C11.0793 5.52497 11 5.3833 11 5.19997V2.79997C11 2.61664 11.0793 2.47497 11.238 2.37497C11.396 2.27497 11.5583 2.26664 11.725 2.34997L14.1 3.54997C14.1833 3.59997 14.25 3.66664 14.3 3.74997C14.35 3.8333 14.375 3.91664 14.375 3.99997C14.375 4.0833 14.35 4.16664 14.3 4.24997C14.25 4.3333 14.1833 4.39997 14.1 4.44997L11.725 5.64997ZM11 22C9.73333 21.9666 8.55433 21.8626 7.463 21.688C6.371 21.5126 5.421 21.2916 4.613 21.025C3.80433 20.7583 3.16667 20.45 2.7 20.1C2.23333 19.75 2 19.3833 2 19V9.99997C2 9.5833 2.26267 9.19564 2.788 8.83697C3.31267 8.47897 4.025 8.1623 4.925 7.88697C5.825 7.6123 6.88333 7.39564 8.1 7.23697C9.31667 7.07897 10.6167 6.99997 12 6.99997C13.3833 6.99997 14.6833 7.07897 15.9 7.23697C17.1167 7.39564 18.175 7.6123 19.075 7.88697C19.975 8.1623 20.6873 8.47897 21.212 8.83697C21.7373 9.19564 22 9.5833 22 9.99997V19C22 19.3833 21.7667 19.75 21.3 20.1C20.8333 20.45 20.196 20.7583 19.388 21.025C18.5793 21.2916 17.6293 21.5126 16.538 21.688C15.446 21.8626 14.2667 21.9666 13 22V18H11V22ZM12 11C13.6167 11 15.0127 10.904 16.188 10.712C17.3627 10.5206 18.3 10.3 19 10.05C19 9.96664 18.3667 9.77064 17.1 9.46197C15.8333 9.15397 14.1333 8.99997 12 8.99997C9.86667 8.99997 8.16667 9.15397 6.9 9.46197C5.63333 9.77064 5 9.96664 5 10.05C5.7 10.3 6.63767 10.5206 7.813 10.712C8.98767 10.904 10.3833 11 12 11ZM9 19.85V18C9 17.45 9.196 16.979 9.588 16.587C9.97933 16.1956 10.45 16 11 16H13C13.55 16 14.021 16.1956 14.413 16.587C14.8043 16.979 15 17.45 15 18V19.85C16.3333 19.7166 17.425 19.5206 18.275 19.262C19.125 19.004 19.7 18.775 20 18.575V11.8C19.0833 12.1666 17.9333 12.4583 16.55 12.675C15.1667 12.8916 13.65 13 12 13C10.35 13 8.83333 12.8916 7.45 12.675C6.06667 12.4583 4.91667 12.1666 4 11.8V18.575C4.3 18.775 4.875 19.004 5.725 19.262C6.575 19.5206 7.66667 19.7166 9 19.85Z" fill="black" fill-opacity="0.65"/>
</svg>
