<svg width="64" height="64" viewBox="0 0 64 64" fill="none" xmlns="http://www.w3.org/2000/svg">
<path d="M28.2663 36.8L22.4663 31C21.9775 30.5112 21.3775 30.2667 20.6663 30.2667C19.9552 30.2667 19.333 30.5334 18.7997 31.0667C18.3108 31.5556 18.0663 32.1778 18.0663 32.9334C18.0663 33.6889 18.3108 34.3112 18.7997 34.8L26.3997 42.4C26.8886 42.8889 27.5108 43.1334 28.2663 43.1334C29.0219 43.1334 29.6441 42.8889 30.133 42.4L45.2663 27.2667C45.7552 26.7778 45.9997 26.1778 45.9997 25.4667C45.9997 24.7556 45.733 24.1334 45.1997 23.6C44.7108 23.1112 44.0886 22.8667 43.333 22.8667C42.5774 22.8667 41.9552 23.1112 41.4663 23.6L28.2663 36.8ZM31.9997 58.6667C28.3108 58.6667 24.8441 57.9663 21.5997 56.5654C18.3552 55.1663 15.533 53.2667 13.133 50.8667C10.733 48.4667 8.83345 45.6445 7.43434 42.4C6.03345 39.1556 5.33301 35.6889 5.33301 32C5.33301 28.3111 6.03345 24.8445 7.43434 21.6C8.83345 18.3556 10.733 15.5334 13.133 13.1334C15.533 10.7334 18.3552 8.83293 21.5997 7.43204C24.8441 6.03293 28.3108 5.33337 31.9997 5.33337C35.6886 5.33337 39.1552 6.03293 42.3997 7.43204C45.6441 8.83293 48.4663 10.7334 50.8663 13.1334C53.2663 15.5334 55.1659 18.3556 56.565 21.6C57.9659 24.8445 58.6663 28.3111 58.6663 32C58.6663 35.6889 57.9659 39.1556 56.565 42.4C55.1659 45.6445 53.2663 48.4667 50.8663 50.8667C48.4663 53.2667 45.6441 55.1663 42.3997 56.5654C39.1552 57.9663 35.6886 58.6667 31.9997 58.6667Z" fill="#00C386"/>
</svg>
