<svg width="1384" height="193" viewBox="0 0 1384 193" fill="none" xmlns="http://www.w3.org/2000/svg">
<path d="M245.796 0H0V51.3608H78.0997V188.499H167.696V51.3608H245.796V0Z" fill="white"/>
<path d="M424.748 0V66.1865H343.477V0H253.88V188.499H343.477V119.136H424.748V188.499H514.344V0H424.748Z" fill="white"/>
<path d="M763.829 51.3608V0H532.305V188.499H763.829V137.139H621.902V119.401H753.125V69.893H621.902V51.3608H763.829Z" fill="white"/>
<path d="M1021.92 0V66.1865H940.653V0H851.057V188.499H940.653V119.136H1021.92V188.499H1111.52V0H1021.92Z" fill="white"/>
<path d="M1254.76 193C1338.01 193 1384 165.996 1384 119.136V0H1294.4V117.547C1294.4 132.373 1284.49 142.169 1254.76 142.169C1225.03 142.169 1215.11 132.373 1215.11 117.547V0H1125.52V119.136C1125.52 165.996 1171.51 193 1254.76 193Z" fill="white"/>
</svg>
