<svg width="32" height="32" viewBox="0 0 32 32" fill="none" xmlns="http://www.w3.org/2000/svg">
<rect width="32" height="32" rx="4" fill="white"/>
<path d="M14.1064 7.59882H17.8921V14.401H14.1064V7.59882Z" fill="#FF5F00"/>
<path d="M14.348 11C14.348 9.61794 14.9969 8.39208 15.9944 7.59888C15.2614 7.02203 14.336 6.67352 13.3265 6.67352C10.9349 6.67352 9 8.60838 9 11C9 13.3915 10.9349 15.3264 13.3265 15.3264C14.336 15.3264 15.2613 14.9779 15.9944 14.401C14.9969 13.6199 14.348 12.382 14.348 11Z" fill="#EB001B"/>
<path d="M22.9993 11C22.9993 13.3915 21.0644 15.3264 18.6728 15.3264C17.6633 15.3264 16.738 14.9779 16.0049 14.401C17.0144 13.6079 17.6513 12.382 17.6513 11C17.6513 9.61794 17.0023 8.39208 16.0049 7.59888C16.7379 7.02203 17.6633 6.67352 18.6728 6.67352C21.0644 6.67352 22.9993 8.62042 22.9993 11Z" fill="#F79E1B"/>
<path d="M16.322 21.2446C16.3114 22.0804 17.0737 22.5468 17.648 22.8242C18.2381 23.1087 18.4363 23.2911 18.4339 23.5456C18.4295 23.935 17.9633 24.1069 17.527 24.1135C16.7657 24.1252 16.3231 23.9099 15.9713 23.747L15.6971 25.0185C16.0501 25.1797 16.7038 25.3203 17.3816 25.3265C18.9728 25.3265 20.0138 24.5481 20.0195 23.3414C20.0257 21.8098 17.8817 21.725 17.8963 21.0404C17.9014 20.8329 18.1012 20.6114 18.5392 20.555C18.756 20.5266 19.3545 20.5048 20.033 20.8144L20.2993 19.5842C19.9344 19.4525 19.4655 19.3265 18.8816 19.3265C17.3839 19.3265 16.3305 20.1154 16.322 21.2446ZM22.8583 19.4324C22.5677 19.4324 22.3229 19.6004 22.2136 19.8581L19.9406 25.2361H21.5307L21.8471 24.3696H23.79L23.9736 25.2361H25.375L24.1521 19.4324H22.8583ZM23.0807 21.0002L23.5396 23.1796H22.2829L23.0807 21.0002ZM14.3942 19.4325L13.1409 25.236H14.6561L15.9088 19.4324L14.3942 19.4325ZM12.1528 19.4324L10.5758 23.3827L9.93782 20.0239C9.86296 19.6489 9.56736 19.4324 9.23909 19.4324H6.66111L6.625 19.601C7.15425 19.7148 7.75557 19.8983 8.11987 20.0947C8.34282 20.2147 8.4064 20.3196 8.47964 20.6047L9.68791 25.2361H11.2891L13.7438 19.4324L12.1528 19.4324Z" fill="url(#paint0_linear_305_4313)"/>
<defs>
<linearGradient id="paint0_linear_305_4313" x1="15.2451" y1="25.4468" x2="15.4172" y2="19.2847" gradientUnits="userSpaceOnUse">
<stop stop-color="#222357"/>
<stop offset="1" stop-color="#254AA5"/>
</linearGradient>
</defs>
</svg>
