<svg width="13" height="12" viewBox="0 0 13 12" fill="none" xmlns="http://www.w3.org/2000/svg">
<path d="M6.00392 10.6667C3.42658 10.6667 1.33724 8.57733 1.33724 6C1.33724 3.42267 3.42658 1.33333 6.00392 1.33333C7.86552 1.33333 9.47259 2.4234 10.2215 4.00007H8.53725C8.16905 4.00007 7.87059 4.29854 7.87059 4.66673C7.87059 5.03493 8.16905 5.3334 8.53725 5.3334H11.8706C12.0474 5.3334 12.217 5.26313 12.342 5.13813C12.467 5.01313 12.5373 4.84353 12.5373 4.66673V1.3334C12.5373 0.965207 12.2388 0.666733 11.8706 0.666733C11.5024 0.666733 11.2039 0.965207 11.2039 1.3334V3.00466C10.1671 1.20869 8.22665 0 6.00392 0C2.6902 0 0.00390625 2.68629 0.00390625 6C0.00390625 9.31373 2.6902 12 6.00392 12C8.56672 12 10.7543 10.3932 11.6141 8.13207C11.7661 7.73227 11.4481 7.33333 11.0203 7.33333H10.9745C10.6795 7.33333 10.4241 7.52933 10.3102 7.8014C9.60532 9.48433 7.94272 10.6667 6.00392 10.6667Z" fill="black" fill-opacity="0.65"/>
</svg>
