<svg width="20" height="20" viewBox="0 0 20 20" fill="none" xmlns="http://www.w3.org/2000/svg">
<g clip-path="url(#clip0_352_4009)">
<path d="M14.66 15.6599C13.352 16.9694 11.6305 17.7848 9.78879 17.9673C7.94705 18.1497 6.09901 17.688 4.55952 16.6607C3.02004 15.6334 1.88436 14.1042 1.34597 12.3334C0.807587 10.5627 0.899804 8.66009 1.60691 6.94973C2.31402 5.23937 3.59227 3.8271 5.22389 2.95351C6.85551 2.07992 8.73954 1.79908 10.555 2.15882C12.3705 2.51856 14.005 3.49664 15.1802 4.92641C16.3554 6.35618 16.9985 8.14919 17 9.99995H15C15.0012 8.61175 14.521 7.26608 13.6413 6.19224C12.7615 5.1184 11.5366 4.38285 10.1753 4.11091C8.81404 3.83898 7.40056 4.04749 6.17577 4.70092C4.95098 5.35436 3.99066 6.41227 3.45845 7.6944C2.92625 8.97653 2.85509 10.4035 3.25711 11.7322C3.65913 13.061 4.50944 14.2092 5.66315 14.9812C6.81687 15.7532 8.20259 16.1013 9.58419 15.9662C10.9658 15.831 12.2578 15.2209 13.24 14.2399L14.66 15.6599ZM12 9.99995H20L16 13.9999L12 9.99995Z" fill="black"/>
</g>
<defs>
<clipPath id="clip0_352_4009">
<rect width="20" height="20" fill="white"/>
</clipPath>
</defs>
</svg>
