<svg width="20" height="20" viewBox="0 0 20 20" fill="none" xmlns="http://www.w3.org/2000/svg">
<path d="M7.91862 11.6667C7.91862 12.1269 8.29172 12.5 8.752 12.5C9.21216 12.5 9.58533 12.1269 9.58533 11.6667V9.58333H11.6687C12.1288 9.58333 12.502 9.21025 12.502 8.75C12.502 8.28977 12.1288 7.91667 11.6687 7.91667H9.58533V5.83333C9.58533 5.3731 9.21216 5 8.752 5C8.29172 5 7.91862 5.3731 7.91862 5.83333V7.91667H5.83529C5.37505 7.91667 5.00195 8.28977 5.00195 8.75C5.00195 9.21025 5.37505 9.58333 5.83529 9.58333H7.91862V11.6667Z" fill="black" fill-opacity="0.65"/>
<path fill-rule="evenodd" clip-rule="evenodd" d="M1.66797 8.74999C1.66797 4.83797 4.83929 1.66666 8.75134 1.66666C12.6633 1.66666 15.8347 4.83797 15.8347 8.74999C15.8347 10.4054 15.266 11.9291 14.3146 13.1348L18.3347 17.1548C18.6601 17.4802 18.6601 18.0079 18.3347 18.3333C18.0092 18.6587 17.4816 18.6587 17.1561 18.3333L13.1361 14.3133C11.9304 15.2647 10.4067 15.8333 8.75134 15.8333C4.83929 15.8333 1.66797 12.662 1.66797 8.74999ZM8.75134 3.33332C5.75976 3.33332 3.33464 5.75845 3.33464 8.74999C3.33464 11.7416 5.75976 14.1667 8.75134 14.1667C10.2473 14.1667 11.6003 13.5613 12.5814 12.5802C13.5626 11.599 14.168 10.246 14.168 8.74999C14.168 5.75845 11.7428 3.33332 8.75134 3.33332Z" fill="black" fill-opacity="0.65"/>
</svg>
