<svg width="25" height="24" viewBox="0 0 25 24" fill="none" xmlns="http://www.w3.org/2000/svg">
<rect x="0.5" width="24" height="24" rx="12" fill="white" fill-opacity="0.04"/>
<path d="M13.5523 7.6465C13.5605 7.36473 13.3344 7.13184 13.0525 7.13184H11.9493C11.6673 7.13184 11.441 7.36497 11.4495 7.64687L11.6112 13.0215C11.6122 13.0553 11.6166 13.0882 11.6239 13.1199C11.6754 13.342 11.8745 13.5065 12.111 13.5065H12.8949C13.1653 13.5065 13.3867 13.2914 13.3946 13.0211L13.5523 7.6465Z" fill="black" fill-opacity="0.65"/>
<path d="M11.6872 16.7392C11.9141 16.9629 12.1858 17.0747 12.5022 17.0747C12.7067 17.0747 12.8953 17.0236 13.0679 16.9213C13.2405 16.8159 13.3795 16.6768 13.485 16.5043C13.5936 16.3285 13.6496 16.1351 13.6528 15.9242C13.6496 15.611 13.5329 15.3425 13.3028 15.1188C13.0727 14.8951 12.8058 14.7832 12.5022 14.7832C12.1858 14.7832 11.9141 14.8951 11.6872 15.1188C11.4603 15.3425 11.3484 15.611 11.3516 15.9242C11.3484 16.2406 11.4603 16.5122 11.6872 16.7392Z" fill="black" fill-opacity="0.65"/>
<path fill-rule="evenodd" clip-rule="evenodd" d="M12.5 22C18.0228 22 22.5 17.5228 22.5 12C22.5 6.47715 18.0228 2 12.5 2C6.97715 2 2.5 6.47715 2.5 12C2.5 17.5228 6.97715 22 12.5 22ZM12.5 20C16.9183 20 20.5 16.4183 20.5 12C20.5 7.58172 16.9183 4 12.5 4C8.08172 4 4.5 7.58172 4.5 12C4.5 16.4183 8.08172 20 12.5 20Z" fill="black" fill-opacity="0.65"/>
</svg>
